<svg width="1474" height="1474" viewBox="0 0 1474 1474" fill="none" xmlns="http://www.w3.org/2000/svg">
<rect width="1474" height="1474" fill="white"/>
<path d="M1069.78 830.735C1187.81 906.89 953.681 789.376 891.791 760.12C829.901 730.863 755.633 693.607 667.892 693.607C579.284 693.607 499.515 746.488 437.03 787.911C385.309 822.199 345.43 848.636 322.182 830.735C294.315 809.279 243.947 797.408 221.868 792.205C215.063 790.601 210.945 789.631 211.001 789.208C211.085 788.56 220.974 789.199 246.018 790.817C249.287 791.028 252.817 791.256 256.614 791.5C306.996 794.735 355.973 761.087 411.889 722.672C481.9 674.572 562.789 619 670.933 619C685.513 619 690.041 619 690.049 619.192C690.053 619.278 689.139 619.404 687.814 619.585C685.968 619.839 683.324 620.201 681.248 620.721C680.874 620.814 679.617 621.052 677.667 621.42C643.719 627.833 399.6 673.947 942.449 692.271C1444.78 709.228 1194.47 837.736 1239.98 796.26C1285.48 754.784 946.339 751.091 1069.78 830.735Z" fill="black"/>
</svg>
